<?xml version="1.0" standalone="no"?>
<!DOCTYPE svg PUBLIC "-//W3C//DTD SVG 20010904//EN"
 "http://www.w3.org/TR/2001/REC-SVG-20010904/DTD/svg10.dtd">
<svg version="1.0" xmlns="http://www.w3.org/2000/svg"
 width="275.000000pt" height="275.000000pt" viewBox="0 0 275.000000 275.000000"
 preserveAspectRatio="xMidYMid meet">
<metadata>
Created by potrace 1.11, written by Peter Selinger 2001-2013
</metadata>
<g transform="translate(0.000000,275.000000) scale(0.100000,-0.100000)"
fill="#000000" stroke="none">
<path d="M1407 2504 c-1 -1 -42 -4 -92 -7 -203 -13 -435 -104 -595 -231 -65
-52 -187 -185 -232 -254 -94 -144 -159 -316 -175 -461 -18 -160 -1 -358 42
-486 35 -105 145 -315 165 -315 3 0 46 71 95 156 50 86 102 177 117 203 15 25
33 57 41 71 11 20 426 739 590 1023 l39 68 113 -195 c62 -107 115 -200 119
-208 3 -7 14 -26 24 -43 22 -34 423 -729 458 -792 47 -82 156 -268 164 -278
10 -12 129 -14 146 -2 7 4 17 30 24 58 7 27 14 49 15 47 2 -2 5 -23 9 -47 3
-24 10 -49 16 -56 9 -10 95 -14 105 -4 5 5 11 38 21 115 4 33 9 62 10 67 1 4
2 21 3 39 1 37 8 34 15 -7 5 -30 33 -219 42 -285 3 -19 7 -46 9 -60 3 -14 7
-40 10 -59 8 -46 14 -54 31 -40 17 14 21 259 4 259 -5 0 -10 -13 -10 -30 0
-16 -5 -30 -10 -30 -6 0 -9 3 -8 8 2 6 -9 100 -17 142 -1 8 -6 37 -9 63 -4 27
-9 59 -12 70 -5 27 -17 118 -17 134 0 15 -24 25 -31 14 -3 -4 -8 -23 -11 -42
-3 -19 -7 -45 -10 -59 -2 -14 -6 -41 -9 -60 -7 -58 -20 -144 -22 -152 -1 -5
-2 -20 -3 -34 -1 -21 -5 -25 -28 -22 -28 3 -34 21 -57 151 -4 22 -13 37 -21
37 -14 0 -20 -16 -47 -130 l-13 -55 -48 -3 -48 -3 24 38 c59 94 132 277 152
383 12 64 15 287 5 357 -67 477 -457 870 -925 932 -89 12 -154 18 -158 15z"/>
<path d="M1382 1328 c-11 -18 -97 -168 -192 -333 -95 -165 -195 -337 -221
-381 -27 -45 -49 -86 -49 -92 0 -6 -3 -12 -7 -14 -5 -1 -16 -18 -25 -36 l-18
-33 74 -34 c274 -127 620 -133 883 -14 24 10 46 19 50 19 5 0 18 9 31 18 l24
18 -101 174 c-56 95 -101 174 -101 176 0 4 -71 124 -90 154 -6 8 -13 22 -17
30 -4 8 -22 38 -40 67 -18 29 -33 54 -33 57 0 3 -18 35 -40 71 -22 36 -40 67
-40 70 0 2 -15 29 -34 60 l-34 56 -20 -33z m118 -468 l0 -70 70 0 70 0 0 -98
0 -99 -52 0 c-95 -1 -88 5 -88 -70 l0 -68 -98 -1 -98 -1 1 65 c1 71 -2 75 -63
74 -80 -1 -78 -3 -77 100 l0 93 70 5 70 5 -1 68 0 67 98 0 98 0 0 -70z"/>
</g>
</svg>
